<svg id="Capa_1" enable-background="new 0 0 512 512" height="512" viewBox="0 0 512 512" width="512" xmlns="http://www.w3.org/2000/svg"><g><path d="m474.795 388.981v-.011c-135.861 76.395-301.728 76.395-437.589 0h-.011c-23.606-38.751-37.195-84.266-37.195-132.97 0-37.984 8.267-74.027 23.115-106.443 12.213-26.677 28.874-50.89 49.045-71.701.875-.907 1.76-1.813 2.656-2.709.789-.8 1.589-1.589 2.389-2.368 46.134-45.035 109.227-72.779 178.795-72.779s132.651 27.744 178.795 72.779c.32.309.64.629.96.939.48.469.96.949 1.429 1.419 21.365 21.397 38.965 46.571 51.701 74.421 14.848 32.415 23.115 68.458 23.115 106.442 0 48.704-13.6 94.229-37.205 132.981z" fill="#464d7f"/><g><g><path d="m512 256c0 48.693-13.6 94.219-37.205 132.971-135.861 76.395-301.728 76.395-437.589 0-23.606-38.752-37.206-84.278-37.206-132.971 0-46.219 12.245-89.568 33.675-126.997 11.787 20.587 26.357 39.381 43.189 55.861 10.944 10.731 22.837 20.48 35.563 29.099 40.949 27.808 90.368 44.043 143.573 44.043s102.635-16.235 143.573-44.043c12.725-8.619 24.619-18.368 35.563-29.099 16.832-16.48 31.403-35.275 43.189-55.861 21.43 37.429 33.675 80.778 33.675 126.997z" fill="#3b407a"/></g></g><g><g><g><path d="m251.834 183.306h8.333v40.274h-8.333z" fill="#fff"/><path d="m253.918 183.306h4.166v40.274h-4.166z" fill="#dfebff"/><g><path d="m156.924 308.311v38.3c0 2.478 2.004 4.482 4.478 4.482h189.194c2.473 0 4.482-2.004 4.482-4.482v-37.449c0-54.536-44.567-99.923-99.077-99.928h-.184c-54.633.097-98.893 44.418-98.893 99.077z" fill="#f29814"/><path d="m156.924 308.311v38.3c0 2.478 2.004 4.482 4.478 4.482h141.986c1.237 0 2.246-2.004 2.246-4.482v-37.449c0-54.536-22.328-99.923-49.633-99.928h-.184c-54.633.097-98.893 44.418-98.893 99.077z" fill="#f4b311"/><path d="m285.683 169.993c-4.859 11.223-16.166 19.003-29.252 18.665-16.394-.425-29.748-13.806-30.152-30.2-.425-17.464 13.6-31.757 30.972-31.757 12.74 0 23.678 7.688 28.437 18.674.118.276-.009.575-.246.706-.079.048-.171.075-.272.075h-.005c-.189 0-.364-.096-.465-.254-3.982-6.017-10.929-9.903-18.753-9.578-11.061.46-20.051 9.491-20.459 20.556-.443 12.175 9.293 22.183 21.367 22.183 7.451 0 14.021-3.816 17.845-9.596.101-.158.276-.254.465-.254.101 0 .197.026.276.079.238.126.361.429.242.701z" fill="#fed110"/><path d="m285.166 169.212c.101 0 .197.026.276.079-4.285 8.692-13.232 14.67-23.577 14.67-14.512 0-26.279-11.762-26.279-26.275 0-14.512 11.767-26.279 26.279-26.279 10.346 0 19.293 5.982 23.577 14.674-.079.048-.171.075-.272.075h-.005c-.189 0-.364-.096-.465-.254-3.982-6.017-10.929-9.903-18.753-9.578-11.061.46-20.051 9.491-20.459 20.556-.443 12.175 9.293 22.183 21.367 22.183 7.451 0 14.021-3.816 17.845-9.596.102-.158.277-.255.466-.255z" fill="#f4b311"/><path d="m277.381 160.678c-.561.548-.816 1.342-.684 2.114l1.254 7.307c.333 1.947-1.715 3.434-3.465 2.513l-6.561-3.447c-.346-.18-.728-.272-1.11-.272s-.763.092-1.11.272l-6.561 3.447c-1.754.921-3.798-.566-3.465-2.513l1.254-7.307c.132-.772-.127-1.566-.689-2.114l-5.307-5.171c-1.417-1.381-.636-3.789 1.324-4.074l7.333-1.066c.776-.11 1.452-.601 1.798-1.303l3.281-6.649c.439-.886 1.289-1.329 2.14-1.329s1.702.443 2.14 1.329l3.28 6.649c.346.702 1.017 1.193 1.798 1.303l7.333 1.066c1.956.285 2.741 2.693 1.324 4.074z" fill="#fed110"/><path d="m277.381 160.678c-.561.548-.816 1.342-.684 2.114l1.254 7.307c.333 1.947-1.715 3.434-3.465 2.513l-6.561-3.447c-.346-.18-.728-.272-1.11-.272v-27.805c.851 0 1.702.443 2.14 1.329l3.28 6.649c.346.702 1.017 1.193 1.798 1.303l7.333 1.066c1.956.285 2.741 2.693 1.324 4.074z" fill="#f4b311"/><path d="m271.871 158.754c-.269.262-.39.642-.327 1.011l.6 3.496c.159.932-.82 1.643-1.658 1.202l-3.139-1.649c-.166-.086-.348-.13-.531-.13s-.365.044-.531.13l-3.139 1.649c-.839.441-1.817-.271-1.658-1.202l.6-3.496c.063-.369-.061-.749-.329-1.011l-2.539-2.474c-.678-.661-.304-1.813.634-1.949l3.508-.51c.371-.052.695-.287.86-.623l1.57-3.181c.21-.424.617-.636 1.024-.636s.814.212 1.024.636l1.57 3.181c.166.336.487.571.86.623l3.508.51c.936.136 1.311 1.288.634 1.949z" fill="#f4b311"/><path d="m271.871 158.754c-.269.262-.39.642-.327 1.011l.6 3.496c.159.932-.82 1.643-1.658 1.202l-3.139-1.649c-.166-.086-.348-.13-.531-.13v-13.303c.407 0 .814.212 1.024.636l1.57 3.181c.166.336.487.571.86.623l3.508.51c.936.136 1.311 1.288.634 1.949z" fill="#f29814"/><path d="m156.924 308.311v38.3c0 2.478 2.004 4.482 4.478 4.482h94.415v-141.859c-54.633.097-98.893 44.418-98.893 99.077z" fill="#fed110"/></g><path d="m399.573 340.683v127.296c-40.938 27.786-90.357 44.021-143.573 44.021-52.8 0-101.867-15.979-142.624-43.371-.171-.117-.341-.234-.512-.352-.139-.107-.288-.213-.437-.309v-127.285z" fill="#fff"/><path d="m399.573 340.683v127.285c-40.949 27.797-90.357 44.032-143.573 44.032v-171.317z" fill="#ffedcc"/><g><path d="m474.795 184.864v204.107c-8.011 13.163-17.184 25.547-27.371 37.013-3.307 3.723-6.731 7.349-10.24 10.88-10.805 10.827-22.581 20.683-35.179 29.451-.811.565-1.621 1.12-2.432 1.653v-283.104z" fill="#fff"/><path d="m474.795 184.864v204.107c-8.011 13.163-17.184 25.547-27.371 37.013-3.307 3.723-6.731 7.349-10.24 10.88v-252z" fill="#ffedcc"/><g><g><path d="m488.885 149.557c-1.024 6.155-4.555 11.445-9.515 14.795-5.248 3.541-9.131 8.64-11.072 14.464-1.205 3.648-4.683 6.048-8.533 6.048h-45.173c-3.84 0-7.317-2.4-8.523-6.048-1.941-5.824-5.824-10.923-11.072-14.464-5.92-4-9.824-10.773-9.824-18.464v-6.859c0-20.928 12.352-38.955 30.165-47.211 8.555-3.957 15.424-10.688 19.456-19.04.32.309.64.629.96.939.48.469.96.949 1.429 1.419 21.366 21.397 38.966 46.571 51.702 74.421z" fill="#fed110"/><path d="m488.885 149.557c-1.024 6.155-4.555 11.445-9.515 14.795-5.248 3.541-9.131 8.64-11.072 14.464-1.205 3.648-4.683 6.048-8.533 6.048h-37.515c-.384-8.299-2.667-15.787-6.165-20.512-2.955-4-4.907-10.773-4.907-18.464v-6.859c0-20.928 6.176-38.955 15.083-47.211 4.107-3.808 7.445-10.187 9.493-18.101.48.469.96.949 1.429 1.419 21.366 21.397 38.966 46.571 51.702 74.421z" fill="#f4b311"/><path d="m488.885 149.557c-1.024 6.155-4.555 11.445-9.515 14.795-5.248 3.541-9.131 8.64-11.072 14.464-1.205 3.648-4.683 6.048-8.533 6.048h-22.581v-109.728c21.365 21.397 38.965 46.571 51.701 74.421z" fill="#f29814"/></g><path d="m484.804 181.438v11.754c0 2.987-2.417 5.403-5.403 5.403h-84.442c-2.982 0-5.403-2.417-5.403-5.403v-11.754c0-2.987 2.421-5.403 5.403-5.403h84.442c2.987 0 5.403 2.416 5.403 5.403z" fill="#ffedcc"/><path d="m484.804 181.438v11.754c0 2.987-2.417 5.403-5.403 5.403h-42.221v-22.56h42.221c2.987 0 5.403 2.416 5.403 5.403z" fill="#f9d6a2"/><path d="m484.804 297.426v11.754c0 2.987-2.417 5.403-5.403 5.403h-84.442c-2.982 0-5.403-2.417-5.403-5.403v-11.754c0-2.987 2.421-5.403 5.403-5.403h84.442c2.987 0 5.403 2.417 5.403 5.403z" fill="#ffedcc"/><path d="m484.804 297.426v11.754c0 2.987-2.417 5.403-5.403 5.403h-42.221v-22.56h42.221c2.987 0 5.403 2.417 5.403 5.403z" fill="#f9d6a2"/></g><g><path d="m412.717 235.022h48.927v35.572h-48.927z" fill="#ffedcc"/><path d="m437.18 235.022h24.463v35.572h-24.463z" fill="#f9d6a2"/><g><path d="m452.486 233.315v30.147h-30.15v-30.147c0-7.252 5.12-13.307 11.943-14.747 1.008-.214 2.055-.326 3.13-.326.912 0 1.808.08 2.675.237 7.051 1.261 12.402 7.424 12.402 14.836z" fill="#3b407a"/><path d="m452.257 233.315v30.147h-15.077v-45.22c8.328 0 15.077 6.749 15.077 15.073z" fill="#212559"/><g><path d="m461.645 265.627v4.967c0 1.195-.969 2.165-2.165 2.165h-44.597c-1.195 0-2.165-.969-2.165-2.165v-4.967c0-1.195.969-2.165 2.165-2.165h44.597c1.196.001 2.165.97 2.165 2.165z" fill="#f9d6a2"/><path d="m461.645 265.627v4.967c0 1.195-.969 2.165-2.165 2.165h-22.299v-9.296h22.299c1.196 0 2.165.969 2.165 2.164z" fill="#efc792"/></g><path d="m461.643 233.166v1.857c0 1.454-1.178 2.632-2.632 2.632h-4.126c-1.454 0-2.632-1.178-2.632-2.632v-1.708c0-8.408-6.882-15.209-15.325-15.071-8.267.135-14.822 7.051-14.822 15.319v1.46c0 1.454-1.178 2.632-2.632 2.632h-4.126c-1.454 0-2.632-1.178-2.632-2.632v-2.168c0-13.569 11.105-24.593 24.704-24.462 13.469.13 24.223 11.305 24.223 24.773z" fill="#f9d6a2"/><path d="m461.643 232.854v2.168c0 1.454-1.178 2.632-2.632 2.632h-4.126c-1.454 0-2.632-1.178-2.632-2.632v-1.708c0-8.324-6.746-15.073-15.073-15.073v-9.85c13.49 0 24.463 10.974 24.463 24.463z" fill="#efc792"/></g></g><g><path d="m445.984 427.573c-2.848 3.168-5.792 6.261-8.8 9.291-4.757 4.779-9.717 9.355-14.848 13.739-3.136 2.688-6.347 5.301-9.621 7.84v-30.869h33.269z" fill="#ffedcc"/><path d="m445.984 427.573c-2.848 3.168-5.792 6.261-8.8 9.291v-9.291z" fill="#f9d6a2"/><g><path d="m451.701 421.045c-.053.064-.117.139-.171.203-1.344 1.589-2.72 3.168-4.107 4.736-3.307 3.723-6.731 7.349-10.24 10.88-4.757 4.779-9.717 9.355-14.848 13.739v-24.736c0-7.253 5.12-13.301 11.947-14.741.928-.203 1.899-.309 2.901-.32.032-.011.075-.011.107-.011h.117c.917 0 1.813.085 2.677.235 5.452.97 9.879 4.874 11.617 10.015z" fill="#3b407a"/><path d="m451.531 421.248c-1.344 1.589-2.72 3.168-4.107 4.736-3.307 3.723-6.731 7.349-10.24 10.88v-26.069h.107c6.666.042 12.298 4.426 14.24 10.453z" fill="#212559"/><path d="m458.176 413.045c-2.101 2.709-4.267 5.376-6.475 8-.053.064-.117.139-.171.203-1.973-6.144-7.776-10.571-14.603-10.453-8.267.139-14.816 7.051-14.816 15.317v1.461c0 1.461-1.184 2.635-2.635 2.635h-4.128c-1.451 0-2.635-1.173-2.635-2.635v-2.165c0-13.568 11.104-24.597 24.704-24.459 8.866.086 16.546 4.95 20.759 12.096z" fill="#f9d6a2"/><path d="m458.229 412.981c-2.123 2.731-4.299 5.419-6.528 8.064-.053.064-.117.139-.171.203-1.952-6.059-7.637-10.453-14.347-10.453v-9.845c8.95-.001 16.801 4.831 21.046 12.031z" fill="#efc792"/></g></g></g><g><path d="m112.427 184.864v283.104c-.811-.533-1.621-1.088-2.432-1.653-16.693-11.616-31.947-25.163-45.419-40.331-10.187-11.467-19.36-23.851-27.371-37.013v-204.107z" fill="#fff"/><path d="m112.427 184.864v283.104c-.811-.533-1.621-1.088-2.432-1.653-12.597-8.768-24.373-18.624-35.179-29.451v-252z" fill="#ffedcc"/><g><g><path d="m126.827 139.029v6.859c0 7.691-3.893 14.464-9.824 18.464-5.248 3.541-9.131 8.64-11.061 14.464-1.216 3.648-4.693 6.048-8.533 6.048h-45.174c-3.84 0-7.317-2.4-8.533-6.048-1.941-5.824-5.824-10.923-11.061-14.464-4.971-3.349-8.501-8.64-9.525-14.795 13.216-28.875 31.648-54.869 54.091-76.779 4.043 8.352 10.912 15.083 19.456 19.04 17.812 8.257 30.164 26.283 30.164 47.211z" fill="#fed110"/><path d="m126.827 139.029v6.859c0 7.691-3.893 14.464-9.824 18.464-5.248 3.541-9.131 8.64-11.061 14.464-1.216 3.648-4.693 6.048-8.533 6.048h-37.526c-.373-8.299-2.656-15.787-6.155-20.512-2.965-4-4.917-10.773-4.917-18.464v-6.859c0-20.928 6.187-38.955 15.083-47.211 3.371-3.125 6.229-7.968 8.267-13.963 1.653-1.717 3.339-3.413 5.045-5.077 4.043 8.352 10.912 15.083 19.456 19.04 17.813 8.257 30.165 26.283 30.165 47.211z" fill="#f4b311"/><path d="m126.827 139.029v6.859c0 7.691-3.893 14.464-9.824 18.464-5.248 3.541-9.131 8.64-11.061 14.464-1.216 3.648-4.693 6.048-8.533 6.048h-22.593v-109.717c.789-.8 1.589-1.589 2.389-2.368 4.043 8.352 10.912 15.083 19.456 19.04 17.814 8.256 30.166 26.282 30.166 47.21z" fill="#f29814"/></g><path d="m122.442 181.438v11.754c0 2.987-2.417 5.403-5.403 5.403h-84.442c-2.982 0-5.403-2.417-5.403-5.403v-11.754c0-2.987 2.421-5.403 5.403-5.403h84.442c2.986 0 5.403 2.416 5.403 5.403z" fill="#ffedcc"/><path d="m122.442 181.438v11.754c0 2.987-2.417 5.403-5.403 5.403h-42.221v-22.56h42.221c2.986 0 5.403 2.416 5.403 5.403z" fill="#f9d6a2"/><path d="m122.442 297.426v11.754c0 2.987-2.417 5.403-5.403 5.403h-84.442c-2.982 0-5.403-2.417-5.403-5.403v-11.754c0-2.987 2.421-5.403 5.403-5.403h84.442c2.986 0 5.403 2.417 5.403 5.403z" fill="#ffedcc"/><path d="m122.442 297.426v11.754c0 2.987-2.417 5.403-5.403 5.403h-42.221v-22.56h42.221c2.986 0 5.403 2.417 5.403 5.403z" fill="#f9d6a2"/></g><g><path d="m50.354 235.022h48.927v35.572h-48.927z" fill="#ffedcc"/><path d="m74.818 235.022h24.463v35.572h-24.463z" fill="#f9d6a2"/><g><path d="m90.124 233.315v30.147h-30.15v-30.147c0-7.252 5.12-13.307 11.943-14.747 1.008-.214 2.055-.326 3.13-.326.912 0 1.808.08 2.675.237 7.051 1.261 12.402 7.424 12.402 14.836z" fill="#3b407a"/><path d="m89.895 233.315v30.147h-15.077v-45.22c8.327 0 15.077 6.749 15.077 15.073z" fill="#212559"/><g><path d="m99.282 265.627v4.967c0 1.195-.969 2.165-2.165 2.165h-44.597c-1.195 0-2.165-.969-2.165-2.165v-4.967c0-1.195.969-2.165 2.165-2.165h44.597c1.196.001 2.165.97 2.165 2.165z" fill="#f9d6a2"/><path d="m99.282 265.627v4.967c0 1.195-.969 2.165-2.165 2.165h-22.299v-9.296h22.299c1.196 0 2.165.969 2.165 2.164z" fill="#efc792"/></g><path d="m99.281 233.166v1.857c0 1.454-1.178 2.632-2.632 2.632h-4.126c-1.454 0-2.632-1.178-2.632-2.632v-1.708c0-8.408-6.882-15.209-15.325-15.071-8.267.135-14.822 7.051-14.822 15.319v1.46c0 1.454-1.178 2.632-2.632 2.632h-4.126c-1.454 0-2.632-1.178-2.632-2.632v-2.168c0-13.569 11.105-24.593 24.704-24.462 13.468.13 24.223 11.305 24.223 24.773z" fill="#f9d6a2"/><path d="m99.281 232.854v2.168c0 1.454-1.178 2.632-2.632 2.632h-4.126c-1.454 0-2.632-1.178-2.632-2.632v-1.708c0-8.324-6.746-15.073-15.073-15.073v-9.85c13.489 0 24.463 10.974 24.463 24.463z" fill="#efc792"/></g></g><g><path d="m99.285 427.573v30.869c-8.619-6.677-16.789-13.877-24.469-21.579-3.008-3.029-5.952-6.123-8.8-9.291h33.269z" fill="#ffedcc"/><path d="m99.285 427.573v30.869c-8.619-6.677-16.789-13.877-24.469-21.579v-9.291h24.469z" fill="#f9d6a2"/><g><path d="m90.123 425.867v25.131c-5.301-4.502-10.4-9.216-15.307-14.133-3.008-3.029-5.952-6.123-8.8-9.291-.491-.523-.971-1.056-1.44-1.589-1.333-1.493-2.645-3.008-3.936-4.533 1.579-5.195 5.899-9.195 11.275-10.325 1.013-.213 2.059-.331 3.136-.331.907 0 1.803.085 2.667.235 7.05 1.257 12.405 7.422 12.405 14.836z" fill="#3b407a"/><path d="m89.899 425.867v24.939c-5.227-4.448-10.251-9.099-15.083-13.941v-26.069c8.331-.001 15.083 6.751 15.083 15.071z" fill="#212559"/><path d="m99.285 425.717v1.856c0 1.461-1.184 2.635-2.635 2.635h-4.128c-1.451 0-2.635-1.173-2.635-2.635v-1.707c0-8.405-6.88-15.211-15.317-15.072-6.592.107-12.096 4.523-14.048 10.507-2.315-2.731-4.565-5.504-6.752-8.331 4.299-7.264 12.235-12.117 21.291-12.021 13.462.128 24.224 11.307 24.224 24.768z" fill="#f9d6a2"/><path d="m99.281 425.408v2.168c0 1.454-1.178 2.632-2.632 2.632h-4.126c-1.454 0-2.632-1.178-2.632-2.632v-1.708c0-8.324-6.746-15.073-15.073-15.073v-9.85c13.489 0 24.463 10.974 24.463 24.463z" fill="#efc792"/></g></g></g><g><path d="m217.124 443.266h77.753v65.295h-77.753z" fill="#ffedcc"/><path d="m256 443.266h38.876v65.295h-38.876z" fill="#f9d6a2"/><g><path d="m279.956 440.553v56.672h-47.913v-56.672c0-11.524 8.137-21.147 18.98-23.435 1.602-.341 3.265-.519 4.974-.519 1.449 0 2.873.127 4.252.376 11.204 2.004 19.707 11.799 19.707 23.578z" fill="#3b407a"/><path d="m279.957 440.553v56.672h-23.959v-80.626c13.233 0 23.959 10.726 23.959 23.954z" fill="#212559"/><g><path d="m294.88 500.661v7.904c0 .171-.011.33-.043.491-12.661 1.941-25.632 2.944-38.837 2.944-13.195 0-26.165-1.003-38.827-2.923-.032-.171-.043-.341-.043-.512v-7.904c0-1.899 1.536-3.435 3.435-3.435h70.869c1.899.001 3.446 1.537 3.446 3.435z" fill="#f9d6a2"/><path d="m294.88 500.661v7.904c0 .171-.011.33-.043.491-12.661 1.941-25.632 2.944-38.837 2.944v-14.773h35.435c1.898 0 3.445 1.536 3.445 3.434z" fill="#efc792"/></g><path d="m294.876 440.316v2.95c0 2.31-1.873 4.183-4.183 4.183h-6.556c-2.31 0-4.183-1.873-4.183-4.183v-2.714c0-13.361-10.937-24.169-24.354-23.951-13.138.214-23.554 11.205-23.554 24.344v2.32c0 2.31-1.873 4.183-4.183 4.183h-6.556c-2.31 0-4.183-1.873-4.183-4.183v-3.446c0-21.564 17.647-39.083 39.258-38.874 21.403.209 38.494 17.968 38.494 39.371z" fill="#f9d6a2"/><path d="m294.876 439.82v3.446c0 2.31-1.873 4.183-4.183 4.183h-6.556c-2.31 0-4.183-1.873-4.183-4.183v-2.714c0-13.228-10.721-23.954-23.954-23.954v-15.654c21.437.001 38.876 17.44 38.876 38.876z" fill="#efc792"/></g></g><g><g><path d="m370.112 427.573v57.632c-7.925 3.968-16.085 7.52-24.459 10.656-7.968 2.976-16.128 5.568-24.459 7.755v-76.043z" fill="#f9d6a2"/><path d="m370.112 427.573v57.632c-7.925 3.968-16.085 7.52-24.459 10.656v-68.288z" fill="#e5b883"/><g><path d="m360.725 425.867v63.797c-4.939 2.219-9.963 4.288-15.072 6.197-4.949 1.845-9.973 3.552-15.072 5.098v-75.093c0-7.253 5.12-13.301 11.936-14.741 1.013-.213 2.059-.331 3.136-.331.907 0 1.803.085 2.677.235 7.051 1.259 12.395 7.424 12.395 14.838z" fill="#3b407a"/><path d="m360.725 425.867v63.797c-4.939 2.219-9.963 4.288-15.072 6.197v-85.067c8.331.001 15.072 6.753 15.072 15.073z" fill="#212559"/><path d="m370.117 425.72v1.857c0 1.454-1.178 2.632-2.632 2.632h-4.126c-1.454 0-2.632-1.178-2.632-2.632v-1.708c0-8.408-6.882-15.209-15.325-15.071-8.267.135-14.822 7.051-14.822 15.319v1.46c0 1.454-1.178 2.632-2.632 2.632h-4.126c-1.454 0-2.632-1.178-2.632-2.632v-2.168c0-13.569 11.105-24.593 24.704-24.462 13.468.129 24.223 11.304 24.223 24.773z" fill="#e5b883"/><path d="m370.117 425.408v2.168c0 1.454-1.178 2.632-2.632 2.632h-4.126c-1.454 0-2.632-1.178-2.632-2.632v-1.708c0-8.324-6.746-15.073-15.073-15.073v-9.85c13.489 0 24.463 10.974 24.463 24.463z" fill="#e0aa73"/></g></g><g><path d="m190.805 427.573v76.043c-17.067-4.48-33.44-10.678-48.917-18.4v-57.643z" fill="#ffedcc"/><path d="m190.805 427.573v76.043c-3.157-.832-6.283-1.717-9.387-2.656-5.099-1.547-10.123-3.253-15.072-5.109v-68.277h24.459z" fill="#f9d6a2"/><g><path d="m181.419 425.867v75.093c-10.347-3.147-20.405-6.923-30.144-11.307v-63.787c0-7.253 5.12-13.301 11.936-14.741 1.013-.213 2.059-.331 3.136-.331.907 0 1.803.085 2.677.235 7.051 1.259 12.395 7.424 12.395 14.838z" fill="#3b407a"/><path d="m181.419 425.867v75.093c-5.099-1.547-10.123-3.253-15.072-5.109v-85.056c8.33 0 15.072 6.752 15.072 15.072z" fill="#212559"/><path d="m190.81 425.72v1.857c0 1.454-1.178 2.632-2.632 2.632h-4.126c-1.454 0-2.632-1.178-2.632-2.632v-1.708c0-8.408-6.882-15.209-15.325-15.071-8.267.135-14.822 7.051-14.822 15.319v1.46c0 1.454-1.178 2.632-2.632 2.632h-4.126c-1.454 0-2.632-1.178-2.632-2.632v-2.168c0-13.569 11.105-24.593 24.704-24.462 13.468.129 24.223 11.304 24.223 24.773z" fill="#f9d6a2"/><path d="m190.81 425.408v2.168c0 1.454-1.178 2.632-2.632 2.632h-4.126c-1.454 0-2.632-1.178-2.632-2.632v-1.708c0-8.324-6.746-15.073-15.073-15.073v-9.85c13.489 0 24.463 10.974 24.463 24.463z" fill="#efc792"/></g></g></g><path d="m112.429 340.686h287.144v34.786h-287.144z" fill="#ffedcc"/><path d="m255.999 340.686h143.574v34.786h-143.574z" fill="#f9d6a2"/></g></g></g></g></svg>